<?xml version="1.0" encoding="UTF-8"?>
<svg id="Capa_2" data-name="Capa 2" xmlns="http://www.w3.org/2000/svg" viewBox="0 0 150 141.37">
  <defs>
    <style>
      .cls-1 {
        fill: #1d1d1b;
      }
    </style>
  </defs>
  <path class="cls-1" d="M88.6.03c-2.96-.33-5.54,2-5.54,4.98l-.07,32.42h0c-.08,4.35-3.62,7.85-7.99,7.85s-8-3.58-8-8V5.33c0-3.03-2.68-5.39-5.68-4.96C25.02,5.63,0,36.25,0,73.99c0,29.17,16.66,54.43,40.97,66.83,3.33,1.7,7.27-.73,7.27-4.46v-46.21h0c-.13-1.29.45-2.59,1.56-3.27,3.16-1.95,6.44.28,6.44,3.27h0v3.92c0,9.97,8.09,18.05,18.06,18.03h1.74c9.94-.02,17.99-8.09,17.99-18.03v-3.92h0c0-1.55.85-3.04,2.28-3.64,2.92-1.23,5.72.88,5.72,3.64h0v46.07c0,3.74,3.96,6.17,7.29,4.46,24.16-12.45,40.68-37.63,40.68-66.68C150,35.4,126.07,4.2,88.6.03Z"/>
</svg>